<?xml version="1.0" standalone="no"?>
<!DOCTYPE svg PUBLIC "-//W3C//DTD SVG 20010904//EN"
 "http://www.w3.org/TR/2001/REC-SVG-20010904/DTD/svg10.dtd">
<svg version="1.0" xmlns="http://www.w3.org/2000/svg"
 width="110.000000pt" height="56.000000pt" viewBox="0 0 110.000000 56.000000"
 preserveAspectRatio="xMidYMid meet">
<metadata>
Created by potrace 1.15, written by Peter Selinger 2001-2017
</metadata>
<g transform="translate(0.000000,56.000000) scale(0.100000,-0.100000)"
fill="#000000" stroke="none">
<path d="M485 540 c-4 -6 -5 -26 -4 -45 2 -19 0 -38 -5 -42 -4 -4 -36 -8 -70
-8 -82 -1 -112 -20 -128 -83 -7 -26 -14 -39 -16 -30 -13 64 -187 74 -239 13
-19 -22 -23 -38 -23 -96 0 -89 17 -124 68 -138 51 -15 100 -14 155 3 40 12 47
12 51 -1 4 -9 16 -13 33 -11 27 3 28 5 33 83 5 74 7 80 28 83 41 6 52 -14 52
-94 l0 -74 30 0 30 0 0 85 c0 106 -14 125 -90 125 l-50 0 0 38 c0 20 4 42 8
48 11 18 49 34 77 34 21 0 25 -4 20 -19 -7 -22 39 -64 64 -59 9 2 21 -7 28
-19 10 -20 9 -26 -13 -48 -31 -31 -35 -120 -5 -156 27 -34 125 -40 164 -9 15
12 27 28 27 36 0 19 -44 18 -60 -2 -17 -19 -69 -15 -84 8 -15 24 -7 28 73 35
70 6 71 6 71 35 0 33 -39 78 -69 78 -31 0 -14 39 25 55 39 16 52 39 34 60 -24
29 20 30 74 2 82 -43 117 -35 130 29 8 37 -21 70 -55 61 -15 -4 -27 1 -39 16
-15 18 -21 20 -41 10 -13 -7 -33 -13 -43 -15 -11 -2 -21 -9 -24 -17 -3 -8 0
-11 7 -7 6 4 11 1 11 -6 0 -8 -14 -19 -31 -25 -29 -11 -31 -11 -26 9 15 55
-32 87 -79 54 -17 -12 -22 -12 -39 0 -22 16 -51 18 -60 4z m-295 -215 c7 -8
28 -15 46 -15 30 0 34 -3 34 -25 0 -24 -3 -25 -55 -25 -48 0 -55 -2 -55 -20 0
-15 7 -20 26 -20 22 0 25 -3 22 -32 -3 -28 -8 -34 -38 -41 -47 -11 -88 5 -101
40 -13 32 -5 119 12 139 16 19 93 18 109 -1z"/>
<path d="M1040 365 c-11 -13 -11 -21 -2 -36 11 -18 9 -19 -43 -19 -76 0 -105
-27 -105 -99 0 -64 6 -79 41 -96 47 -25 141 -14 161 18 18 28 8 47 -22 47 -20
0 -30 -5 -30 -15 0 -19 -48 -31 -69 -18 -20 12 -27 89 -10 109 15 19 68 18 75
-1 4 -9 19 -15 35 -15 34 0 38 21 10 49 -19 19 -19 19 1 24 15 4 19 12 16 34
-4 33 -37 43 -58 18z"/>
<path d="M822 358 c-5 -7 -11 -68 -11 -136 l-2 -122 31 0 30 0 0 105 c0 71 -4
105 -11 105 -8 0 -8 5 1 15 10 12 10 18 0 30 -15 18 -24 19 -38 3z"/>
<path d="M722 223 l3 -118 33 -3 32 -3 0 120 0 121 -35 0 -36 0 3 -117z"/>
<path d="M540 90 c0 -5 -8 -10 -18 -10 -10 0 -23 -5 -30 -12 -9 -9 -12 -9 -12
-1 0 18 -187 15 -194 -3 -6 -15 2 -44 13 -45 15 -1 142 -1 206 1 49 1 64 4 50
10 -17 7 -17 9 -2 9 9 1 17 6 17 11 0 6 5 10 11 10 6 0 9 -9 6 -20 -3 -11 -1
-20 4 -20 5 0 9 9 9 20 0 11 5 20 10 20 6 0 10 -9 10 -20 0 -22 1 -22 100 -22
33 0 65 1 70 1 6 1 10 14 10 30 l0 28 -117 2 c-70 0 -119 5 -121 11 -5 13 -22
13 -22 0z"/>
</g>
</svg>
